<?xml version="1.0" encoding="utf-8"?>
<!-- Generator: Adobe Illustrator 27.0.0, SVG Export Plug-In . SVG Version: 6.00 Build 0)  -->
<svg version="1.1" id="Layer_1" xmlns="http://www.w3.org/2000/svg" xmlns:xlink="http://www.w3.org/1999/xlink" x="0px" y="0px"
	 viewBox="0 0 382.75 70" style="enable-background:new 0 0 382.75 70;" xml:space="preserve">
<style type="text/css">
	.st0{fill:#FFFFFF;}
</style>
<g>
	<path class="st0" d="M52.27,35.9c-1.78,3.13-4.41,5.62-7.89,7.46c-3.48,1.84-7.69,2.76-12.64,2.76h-7.59v19.41H5V4.47h26.74
		c7.47,0,13.21,1.9,17.21,5.69c4,3.8,5.99,8.88,5.99,15.27C54.95,29.28,54.05,32.77,52.27,35.9z M35.54,25.42
		c0-3.74-1.98-5.61-5.95-5.61h-5.43v11.21h5.43C33.55,31.03,35.54,29.16,35.54,25.42z"/>
	<path class="st0" d="M80.13,4.47v61.07H60.98V4.47H80.13z"/>
	<path class="st0" d="M127.66,65.53l-11.21-15.87l-9.31,15.87H85.31l20.1-31.48L84.44,4.47h22.68l10.78,15.27l8.97-15.27h21.82
		l-19.75,30.88l21.39,30.19L127.66,65.53L127.66,65.53z"/>
	<path class="st0" d="M193.81,56.3h-20.36l-3.02,9.23h-20.09l22.34-61.07h22.08l22.25,61.07h-20.18L193.81,56.3z M189.15,41.9
		l-5.52-16.99l-5.52,16.99H189.15z"/>
	<path class="st0" d="M282.82,4.47l-20.53,61.07h-24.76L217.01,4.47h20.36l12.59,42l12.51-42L282.82,4.47L282.82,4.47z"/>
	<path class="st0" d="M306.28,4.47v61.07h-19.15V4.47H306.28z"/>
	<path class="st0" d="M354.07,56.3h-20.36l-3.02,9.23h-20.1l22.34-61.07h22.08l22.26,61.06h-20.18L354.07,56.3z M349.41,41.9
		l-5.52-16.99l-5.52,16.99H349.41z"/>
</g>
</svg>
